STARTFONT   2.1
FONT -infocom-Zork-medium-r-normal--16-160-72-72-c-90-misc-fontspecific
SIZE  16  96   96
FONTBOUNDINGBOX 9  16  0  -1
STARTPROPERTIES  4
FONT_ASCENT 15
FONT_DESCENT 1
CAP_HEIGHT 15
DEFAULT_CHAR 32
ENDPROPERTIES
CHARS  96
STARTCHAR 0
ENCODING 32
SWIDTH    9000    0
DWIDTH    9    0
BBX  9  16  0   -1
BITMAP
0000
0000
0000
0000
0000
0000
0000
0000
0000
0000
0000
0000
0000
0000
0000
0000
ENDCHAR
STARTCHAR 1
ENCODING 33
SWIDTH    9000    0
DWIDTH    9    0
BBX  9  16  0   -1
BITMAP
0000
0000
0000
0000
1000
3000
7000
FF80
7000
3000
1000
0000
0000
0000
0000
0000
ENDCHAR
STARTCHAR 2
ENCODING 34
SWIDTH    9000    0
DWIDTH    9    0
BBX  9  16  0   -1
BITMAP
0000
0000
0000
0000
0400
0600
0700
FF80
0700
0600
0400
0000
0000
0000
0000
0000
ENDCHAR
STARTCHAR 3
ENCODING 35
SWIDTH    9000    0
DWIDTH    9    0
BBX  9  16  0   -1
BITMAP
0080
0100
0100
0200
0200
0400
0400
0800
0800
1000
1000
2000
2000
4000
4000
8000
ENDCHAR
STARTCHAR 4
ENCODING 36
SWIDTH    9000    0
DWIDTH    9    0
BBX  9  16  0   -1
BITMAP
8000
4000
4000
2000
2000
1000
1000
0800
0800
0400
0400
0200
0200
0100
0100
0080
ENDCHAR
STARTCHAR 5
ENCODING 37
SWIDTH    9000    0
DWIDTH    9    0
BBX  9  16  0   -1
BITMAP
0000
0000
0000
0000
0000
0000
0000
0000
0000
0000
0000
0000
0000
0000
0000
0000
ENDCHAR
STARTCHAR 6
ENCODING 38
SWIDTH    9000    0
DWIDTH    9    0
BBX  9  16  0   -1
BITMAP
0000
0000
0000
0000
0000
0000
0000
0000
FF80
0000
0000
0000
0000
0000
0000
0000
ENDCHAR
STARTCHAR 7
ENCODING 39
SWIDTH    9000    0
DWIDTH    9    0
BBX  9  16  0   -1
BITMAP
0000
0000
0000
0000
0000
0000
FF80
0000
0000
0000
0000
0000
0000
0000
0000
0000
ENDCHAR
STARTCHAR 8
ENCODING 40
SWIDTH    9000    0
DWIDTH    9    0
BBX  9  16  0   -1
BITMAP
0800
0800
0800
0800
0800
0800
0800
0800
0800
0800
0800
0800
0800
0800
0800
0800
ENDCHAR
STARTCHAR 9
ENCODING 41
SWIDTH    9000    0
DWIDTH    9    0
BBX  9  16  0   -1
BITMAP
0800
0800
0800
0800
0800
0800
0800
0800
0800
0800
0800
0800
0800
0800
0800
0800
ENDCHAR
STARTCHAR 10
ENCODING 42
SWIDTH    9000    0
DWIDTH    9    0
BBX  9  16  0   -1
BITMAP
0800
0800
0800
0800
0800
0800
FF80
0000
0000
0000
0000
0000
0000
0000
0000
0000
ENDCHAR
STARTCHAR 11
ENCODING 43
SWIDTH    9000    0
DWIDTH    9    0
BBX  9  16  0   -1
BITMAP
0000
0000
0000
0000
0000
0000
0000
0000
FF80
0800
0800
0800
0800
0800
0800
0800
ENDCHAR
STARTCHAR 12
ENCODING 44
SWIDTH    9000    0
DWIDTH    9    0
BBX  9  16  0   -1
BITMAP
0800
0800
0800
0800
0800
0800
0800
0800
0F80
0800
0800
0800
0800
0800
0800
0800
ENDCHAR
STARTCHAR 13
ENCODING 45
SWIDTH    9000    0
DWIDTH    9    0
BBX  9  16  0   -1
BITMAP
0800
0800
0800
0800
0800
0800
0800
0800
F800
0800
0800
0800
0800
0800
0800
0800
ENDCHAR
STARTCHAR 14
ENCODING 46
SWIDTH    9000    0
DWIDTH    9    0
BBX  9  16  0   -1
BITMAP
0800
0800
0800
0800
0800
0800
0800
0800
0F80
0000
0000
0000
0000
0000
0000
0000
ENDCHAR
STARTCHAR 15
ENCODING 47
SWIDTH    9000    0
DWIDTH    9    0
BBX  9  16  0   -1
BITMAP
0000
0000
0000
0000
0000
0000
0F80
0800
0800
0800
0800
0800
0800
0800
0800
0800
ENDCHAR
STARTCHAR 16
ENCODING 48
SWIDTH    9000    0
DWIDTH    9    0
BBX  9  16  0   -1
BITMAP
0000
0000
0000
0000
0000
0000
F800
0800
0800
0800
0800
0800
0800
0800
0800
0800
ENDCHAR
STARTCHAR 17
ENCODING 49
SWIDTH    9000    0
DWIDTH    9    0
BBX  9  16  0   -1
BITMAP
0800
0800
0800
0800
0800
0800
0800
0800
F800
0000
0000
0000
0000
0000
0000
0000
ENDCHAR
STARTCHAR 18
ENCODING 50
SWIDTH    9000    0
DWIDTH    9    0
BBX  9  16  0   -1
BITMAP
0800
0800
0800
0800
0800
0800
0800
0800
0F80
1000
1000
2000
2000
4000
4000
8000
ENDCHAR
STARTCHAR 19
ENCODING 51
SWIDTH    9000    0
DWIDTH    9    0
BBX  9  16  0   -1
BITMAP
8000
4000
4000
2000
1000
1000
0F80
0800
0800
0800
0800
0800
0800
0800
0800
0800
ENDCHAR
STARTCHAR 20
ENCODING 52
SWIDTH    9000    0
DWIDTH    9    0
BBX  9  16  0   -1
BITMAP
0080
0100
0100
0200
0400
0400
F800
0800
0800
0800
0800
0800
0800
0800
0800
0800
ENDCHAR
STARTCHAR 21
ENCODING 53
SWIDTH    9000    0
DWIDTH    9    0
BBX  9  16  0   -1
BITMAP
0800
0800
0800
0800
0800
0800
0800
0800
F800
0400
0400
0200
0200
0100
0100
0080
ENDCHAR
STARTCHAR 22
ENCODING 54
SWIDTH    9000    0
DWIDTH    9    0
BBX  9  16  0   -1
BITMAP
FF80
FF80
FF80
FF80
FF80
FF80
FF80
FF80
FF80
FF80
FF80
FF80
FF80
FF80
FF80
FF80
ENDCHAR
STARTCHAR 23
ENCODING 55
SWIDTH    9000    0
DWIDTH    9    0
BBX  9  16  0   -1
BITMAP
FF80
FF80
FF80
FF80
FF80
FF80
FF80
FF80
FF80
0000
0000
0000
0000
0000
0000
0000
ENDCHAR
STARTCHAR 24
ENCODING 56
SWIDTH    9000    0
DWIDTH    9    0
BBX  9  16  0   -1
BITMAP
0000
0000
0000
0000
0000
0000
FF80
FF80
FF80
FF80
FF80
FF80
FF80
FF80
FF80
FF80
ENDCHAR
STARTCHAR 25
ENCODING 57
SWIDTH    9000    0
DWIDTH    9    0
BBX  9  16  0   -1
BITMAP
F800
F800
F800
F800
F800
F800
F800
F800
F800
F800
F800
F800
F800
F800
F800
F800
ENDCHAR
STARTCHAR 26
ENCODING 58
SWIDTH    9000    0
DWIDTH    9    0
BBX  9  16  0   -1
BITMAP
0F80
0F80
0F80
0F80
0F80
0F80
0F80
0F80
0F80
0F80
0F80
0F80
0F80
0F80
0F80
0F80
ENDCHAR
STARTCHAR 27
ENCODING 59
SWIDTH    9000    0
DWIDTH    9    0
BBX  9  16  0   -1
BITMAP
0800
0800
0800
0800
0800
0800
FF80
FF80
FF80
FF80
FF80
FF80
FF80
FF80
FF80
FF80
ENDCHAR
STARTCHAR 28
ENCODING 60
SWIDTH    9000    0
DWIDTH    9    0
BBX  9  16  0   -1
BITMAP
FF80
FF80
FF80
FF80
FF80
FF80
FF80
FF80
FF80
0800
0800
0800
0800
0800
0800
0800
ENDCHAR
STARTCHAR 29
ENCODING 61
SWIDTH    9000    0
DWIDTH    9    0
BBX  9  16  0   -1
BITMAP
F800
F800
F800
F800
F800
F800
F800
F800
FF80
F800
F800
F800
F800
F800
F800
F800
ENDCHAR
STARTCHAR 30
ENCODING 62
SWIDTH    9000    0
DWIDTH    9    0
BBX  9  16  0   -1
BITMAP
0F80
0F80
0F80
0F80
0F80
0F80
0F80
0F80
FF80
0F80
0F80
0F80
0F80
0F80
0F80
0F80
ENDCHAR
STARTCHAR 31
ENCODING 63
SWIDTH    9000    0
DWIDTH    9    0
BBX  9  16  0   -1
BITMAP
0F80
0F80
0F80
0F80
0F80
0F80
0F80
0F80
0F80
0000
0000
0000
0000
0000
0000
0000
ENDCHAR
STARTCHAR 32
ENCODING 64
SWIDTH    9000    0
DWIDTH    9    0
BBX  9  16  0   -1
BITMAP
0000
0000
0000
0000
0000
0000
0F80
0F80
0F80
0F80
0F80
0F80
0F80
0F80
0F80
0F80
ENDCHAR
STARTCHAR 33
ENCODING 65
SWIDTH    9000    0
DWIDTH    9    0
BBX  9  16  0   -1
BITMAP
0000
0000
0000
0000
0000
0000
F800
F800
F800
F800
F800
F800
F800
F800
F800
F800
ENDCHAR
STARTCHAR 34
ENCODING 66
SWIDTH    9000    0
DWIDTH    9    0
BBX  9  16  0   -1
BITMAP
F800
F800
F800
F800
F800
F800
F800
F800
F800
0000
0000
0000
0000
0000
0000
0000
ENDCHAR
STARTCHAR 35
ENCODING 67
SWIDTH    9000    0
DWIDTH    9    0
BBX  9  16  0   -1
BITMAP
0F80
0F80
0F80
0F80
0F80
0F80
0F80
0F80
0F80
1000
1000
2000
2000
4000
4000
8000
ENDCHAR
STARTCHAR 36
ENCODING 68
SWIDTH    9000    0
DWIDTH    9    0
BBX  9  16  0   -1
BITMAP
8000
4000
4000
2000
1000
1000
0F80
0F80
0F80
0F80
0F80
0F80
0F80
0F80
0F80
0F80
ENDCHAR
STARTCHAR 37
ENCODING 69
SWIDTH    9000    0
DWIDTH    9    0
BBX  9  16  0   -1
BITMAP
0080
0100
0100
0200
0400
0400
F800
F800
F800
F800
F800
F800
F800
F800
F800
F800
ENDCHAR
STARTCHAR 38
ENCODING 70
SWIDTH    9000    0
DWIDTH    9    0
BBX  9  16  0   -1
BITMAP
F800
F800
F800
F800
F800
F800
F800
F800
F800
0400
0400
0200
0200
0100
0080
0080
ENDCHAR
STARTCHAR 39
ENCODING 71
SWIDTH    9000    0
DWIDTH    9    0
BBX  9  16  0   -1
BITMAP
0080
0000
0000
0000
0000
0000
0000
0000
0000
0000
0000
0000
0000
0000
0000
0000
ENDCHAR
STARTCHAR 40
ENCODING 72
SWIDTH    9000    0
DWIDTH    9    0
BBX  9  16  0   -1
BITMAP
0000
0000
0000
0000
0000
0000
0000
0000
0000
0000
0000
0000
0000
0000
0000
0080
ENDCHAR
STARTCHAR 41
ENCODING 73
SWIDTH    9000    0
DWIDTH    9    0
BBX  9  16  0   -1
BITMAP
0000
0000
0000
0000
0000
0000
0000
0000
0000
0000
0000
0000
0000
0000
0000
8000
ENDCHAR
STARTCHAR 42
ENCODING 74
SWIDTH    9000    0
DWIDTH    9    0
BBX  9  16  0   -1
BITMAP
8000
0000
0000
0000
0000
0000
0000
0000
0000
0000
0000
0000
0000
0000
0000
0000
ENDCHAR
STARTCHAR 43
ENCODING 75
SWIDTH    9000    0
DWIDTH    9    0
BBX  9  16  0   -1
BITMAP
FF80
0000
0000
0000
0000
0000
0000
0000
0000
0000
0000
0000
0000
0000
0000
0000
ENDCHAR
STARTCHAR 44
ENCODING 76
SWIDTH    9000    0
DWIDTH    9    0
BBX  9  16  0   -1
BITMAP
0000
0000
0000
0000
0000
0000
0000
0000
0000
0000
0000
0000
0000
0000
0000
FF80
ENDCHAR
STARTCHAR 45
ENCODING 77
SWIDTH    9000    0
DWIDTH    9    0
BBX  9  16  0   -1
BITMAP
8000
8000
8000
8000
8000
8000
8000
8000
8000
8000
8000
8000
8000
8000
8000
8000
ENDCHAR
STARTCHAR 46
ENCODING 78
SWIDTH    9000    0
DWIDTH    9    0
BBX  9  16  0   -1
BITMAP
0080
0080
0080
0080
0080
0080
0080
0080
0080
0080
0080
0080
0080
0080
0080
0080
ENDCHAR
STARTCHAR 47
ENCODING 79
SWIDTH    9000    0
DWIDTH    9    0
BBX  9  16  0   -1
BITMAP
0000
FF80
0000
0000
0000
0000
0000
0000
0000
0000
0000
0000
0000
0000
FF80
0000
ENDCHAR
STARTCHAR 48
ENCODING 80
SWIDTH    9000    0
DWIDTH    9    0
BBX  9  16  0   -1
BITMAP
0000
FF80
8000
8000
8000
8000
8000
8000
8000
8000
8000
8000
8000
8000
FF80
0000
ENDCHAR
STARTCHAR 49
ENCODING 81
SWIDTH    9000    0
DWIDTH    9    0
BBX  9  16  0   -1
BITMAP
0000
FF80
C000
C000
C000
C000
C000
C000
C000
C000
C000
C000
C000
C000
FF80
0000
ENDCHAR
STARTCHAR 50
ENCODING 82
SWIDTH    9000    0
DWIDTH    9    0
BBX  9  16  0   -1
BITMAP
0000
FF80
E000
E000
E000
E000
E000
E000
E000
E000
E000
E000
E000
E000
FF80
0000
ENDCHAR
STARTCHAR 51
ENCODING 83
SWIDTH    9000    0
DWIDTH    9    0
BBX  9  16  0   -1
BITMAP
0000
FF80
F000
F000
F000
F000
F000
F000
F000
F000
F000
F000
F000
F000
FF80
0000
ENDCHAR
STARTCHAR 52
ENCODING 84
SWIDTH    9000    0
DWIDTH    9    0
BBX  9  16  0   -1
BITMAP
0000
FF80
FC00
FC00
FC00
FC00
FC00
FC00
FC00
FC00
FC00
FC00
FC00
FC00
FF80
0000
ENDCHAR
STARTCHAR 53
ENCODING 85
SWIDTH    9000    0
DWIDTH    9    0
BBX  9  16  0   -1
BITMAP
0000
FF80
FE00
FE00
FE00
FE00
FE00
FE00
FE00
FE00
FE00
FE00
FE00
FE00
FF80
0000
ENDCHAR
STARTCHAR 54
ENCODING 86
SWIDTH    9000    0
DWIDTH    9    0
BBX  9  16  0   -1
BITMAP
0000
FF80
FF00
FF00
FF00
FF00
FF00
FF00
FF00
FF00
FF00
FF00
FF00
FF00
FF80
0000
ENDCHAR
STARTCHAR 55
ENCODING 87
SWIDTH    9000    0
DWIDTH    9    0
BBX  9  16  0   -1
BITMAP
0000
FF80
FF80
FF80
FF80
FF80
FF80
FF80
FF80
FF80
FF80
FF80
FF80
FF80
FF80
0000
ENDCHAR
STARTCHAR 56
ENCODING 88
SWIDTH    9000    0
DWIDTH    9    0
BBX  9  16  0   -1
BITMAP
0000
0080
0080
0080
0080
0080
0080
0080
0080
0080
0080
0080
0080
0080
0080
0000
ENDCHAR
STARTCHAR 57
ENCODING 89
SWIDTH    9000    0
DWIDTH    9    0
BBX  9  16  0   -1
BITMAP
0000
8000
8000
8000
8000
8000
8000
8000
8000
8000
8000
8000
8000
8000
8000
0000
ENDCHAR
STARTCHAR 58
ENCODING 90
SWIDTH    9000    0
DWIDTH    9    0
BBX  9  16  0   -1
BITMAP
8080
4100
4100
2200
2200
1400
1400
0800
0800
1400
1200
2200
2100
4100
4080
8080
ENDCHAR
STARTCHAR 59
ENCODING 91
SWIDTH    9000    0
DWIDTH    9    0
BBX  9  16  0   -1
BITMAP
0800
0800
0800
0800
0800
0800
0800
0800
FF80
0800
0800
0800
0800
0800
0800
0800
ENDCHAR
STARTCHAR 60
ENCODING 92
SWIDTH    9000    0
DWIDTH    9    0
BBX  9  16  0   -1
BITMAP
0800
1C00
1C00
3E00
7F00
0800
0800
0800
0800
0800
0800
0800
0800
0800
0800
0800
ENDCHAR
STARTCHAR 61
ENCODING 93
SWIDTH    9000    0
DWIDTH    9    0
BBX  9  16  0   -1
BITMAP
0800
0800
0800
0800
0800
0800
0800
0800
0800
0800
0800
7F00
3E00
1C00
1C00
0800
ENDCHAR
STARTCHAR 62
ENCODING 94
SWIDTH    9000    0
DWIDTH    9    0
BBX  9  16  0   -1
BITMAP
0800
1C00
1C00
3E00
7F00
0800
0800
0800
0800
0800
0800
7F00
3E00
1C00
1C00
0800
ENDCHAR
STARTCHAR 63
ENCODING 95
SWIDTH    9000    0
DWIDTH    9    0
BBX  9  16  0   -1
BITMAP
FF80
8080
8080
8080
8080
8080
8080
8080
8080
8080
8080
8080
8080
8080
8080
FF80
ENDCHAR
STARTCHAR 64
ENCODING 96
SWIDTH    9000    0
DWIDTH    9    0
BBX  9  16  0   -1
BITMAP
1C00
2200
4100
4100
0100
0100
0200
0400
0800
0800
0800
0800
0800
0000
0800
0800
ENDCHAR
STARTCHAR 65
ENCODING 97
SWIDTH    9000    0
DWIDTH    9    0
BBX  9  16  0   -1
BITMAP
0000
C100
A200
A200
9400
8800
8000
E100
9200
8C00
8000
8000
8000
8000
8000
8000
ENDCHAR
STARTCHAR 66
ENCODING 98
SWIDTH    9000    0
DWIDTH    9    0
BBX  9  16  0   -1
BITMAP
0000
7000
4800
4800
4400
4400
4200
4200
7E00
4200
4200
4400
4400
4800
4800
7000
ENDCHAR
STARTCHAR 67
ENCODING 99
SWIDTH    9000    0
DWIDTH    9    0
BBX  9  16  0   -1
BITMAP
0000
0C00
0A00
0A00
0900
0900
0880
0800
0800
0800
8800
4800
4800
2800
2800
1800
ENDCHAR
STARTCHAR 68
ENCODING 100
SWIDTH    9000    0
DWIDTH    9    0
BBX  9  16  0   -1
BITMAP
0000
C100
C100
A300
A300
9500
9500
8900
8900
9900
9500
A500
A300
C300
C100
8100
ENDCHAR
STARTCHAR 69
ENCODING 101
SWIDTH    9000    0
DWIDTH    9    0
BBX  9  16  0   -1
BITMAP
0000
C300
C300
A500
A500
9900
9900
8100
8100
8100
8100
8100
8100
8100
8100
8100
ENDCHAR
STARTCHAR 70
ENCODING 102
SWIDTH    9000    0
DWIDTH    9    0
BBX  9  16  0   -1
BITMAP
0000
8900
8900
9200
9200
A400
A400
C800
C800
9000
9000
A000
A000
C000
C000
8000
ENDCHAR
STARTCHAR 71
ENCODING 103
SWIDTH    9000    0
DWIDTH    9    0
BBX  9  16  0   -1
BITMAP
0000
8100
8100
4200
4200
2400
2400
7E00
9900
7E00
1800
2400
2400
4200
4200
8100
ENDCHAR
STARTCHAR 72
ENCODING 104
SWIDTH    9000    0
DWIDTH    9    0
BBX  9  16  0   -1
BITMAP
0000
C100
A100
A100
9100
9100
8900
8500
8500
C300
A100
9100
9100
8900
8500
8300
ENDCHAR
STARTCHAR 73
ENCODING 105
SWIDTH    9000    0
DWIDTH    9    0
BBX  9  16  0   -1
BITMAP
0000
0800
0800
0800
0800
0800
0800
0800
0800
0800
0800
0800
0800
0800
0800
0800
ENDCHAR
STARTCHAR 74
ENCODING 106
SWIDTH    9000    0
DWIDTH    9    0
BBX  9  16  0   -1
BITMAP
0000
0C00
1C00
1A00
2A00
2900
4900
4880
8880
4900
4900
2A00
2A00
1C00
1C00
0800
ENDCHAR
STARTCHAR 75
ENCODING 107
SWIDTH    9000    0
DWIDTH    9    0
BBX  9  16  0   -1
BITMAP
0000
4000
4000
4000
4000
6000
6000
5000
5000
4800
4800
4400
4400
4200
4200
4200
ENDCHAR
STARTCHAR 76
ENCODING 108
SWIDTH    9000    0
DWIDTH    9    0
BBX  9  16  0   -1
BITMAP
0000
6000
5000
5000
4800
4800
4400
4400
4200
4000
4000
4000
4000
4000
4000
4000
ENDCHAR
STARTCHAR 77
ENCODING 109
SWIDTH    9000    0
DWIDTH    9    0
BBX  9  16  0   -1
BITMAP
0000
C300
C300
A500
A500
9900
9900
9900
9900
A500
A500
C300
C300
8100
8100
8100
ENDCHAR
STARTCHAR 78
ENCODING 110
SWIDTH    9000    0
DWIDTH    9    0
BBX  9  16  0   -1
BITMAP
0000
8800
4800
4800
2800
2800
1800
1800
0800
0800
0C00
0C00
0A00
0A00
0900
0900
ENDCHAR
STARTCHAR 79
ENCODING 111
SWIDTH    9000    0
DWIDTH    9    0
BBX  9  16  0   -1
BITMAP
0000
C300
A500
A500
9900
8100
8100
C300
C200
A400
9800
8000
8000
8000
8000
8000
ENDCHAR
STARTCHAR 80
ENCODING 112
SWIDTH    9000    0
DWIDTH    9    0
BBX  9  16  0   -1
BITMAP
0000
8000
8000
8000
8000
8000
8000
8000
8400
8C00
8C00
9400
9400
A400
A400
C400
ENDCHAR
STARTCHAR 81
ENCODING 113
SWIDTH    9000    0
DWIDTH    9    0
BBX  9  16  0   -1
BITMAP
0000
9C80
6B00
0800
0800
0800
0800
0800
0800
0800
0800
0800
0800
0800
0800
0800
ENDCHAR
STARTCHAR 82
ENCODING 114
SWIDTH    9000    0
DWIDTH    9    0
BBX  9  16  0   -1
BITMAP
0000
7800
4400
4200
4200
4200
4200
4200
4400
7800
4400
4400
4400
4200
4200
4200
ENDCHAR
STARTCHAR 83
ENCODING 115
SWIDTH    9000    0
DWIDTH    9    0
BBX  9  16  0   -1
BITMAP
0000
8000
8000
8300
8300
8500
8500
8900
8900
9100
9100
A100
A100
C100
0100
0100
ENDCHAR
STARTCHAR 84
ENCODING 116
SWIDTH    9000    0
DWIDTH    9    0
BBX  9  16  0   -1
BITMAP
0000
1C00
2A00
2A00
4900
8880
0800
0800
0800
0800
0800
0800
0800
0800
0800
0800
ENDCHAR
STARTCHAR 85
ENCODING 117
SWIDTH    9000    0
DWIDTH    9    0
BBX  9  16  0   -1
BITMAP
0000
6000
5000
5000
4800
4800
4400
4400
4200
4200
4200
4200
4200
4200
4200
4200
ENDCHAR
STARTCHAR 86
ENCODING 118
SWIDTH    9000    0
DWIDTH    9    0
BBX  9  16  0   -1
BITMAP
0000
3C00
4200
4200
2400
2400
1800
1800
1800
1800
2400
2400
4200
4200
8100
8100
ENDCHAR
STARTCHAR 87
ENCODING 119
SWIDTH    9000    0
DWIDTH    9    0
BBX  9  16  0   -1
BITMAP
0000
7800
4400
4200
4200
4200
4200
4200
4400
7800
4000
4000
4000
4000
4000
4000
ENDCHAR
STARTCHAR 88
ENCODING 120
SWIDTH    9000    0
DWIDTH    9    0
BBX  9  16  0   -1
BITMAP
0000
0800
0800
0800
0800
0800
0800
0800
1C00
2A00
4900
8880
8880
8880
8880
8880
ENDCHAR
STARTCHAR 89
ENCODING 121
SWIDTH    9000    0
DWIDTH    9    0
BBX  9  16  0   -1
BITMAP
0000
F800
8C00
8C00
8A00
CA00
C900
A900
A880
9880
8C80
8C80
8A80
8A80
8980
8980
ENDCHAR
STARTCHAR 90
ENCODING 122
SWIDTH    9000    0
DWIDTH    9    0
BBX  9  16  0   -1
BITMAP
0000
3F00
2000
4000
4000
8000
8000
4000
4000
2000
2000
1000
1000
0800
0800
0700
ENDCHAR
STARTCHAR 91
ENCODING 123
SWIDTH    9000    0
DWIDTH    9    0
BBX  9  16  0   -1
BITMAP
F780
E380
E380
C180
8080
F780
F780
F780
F780
F780
F780
F780
F780
F780
F780
F780
ENDCHAR
STARTCHAR 92
ENCODING 124
SWIDTH    9000    0
DWIDTH    9    0
BBX  9  16  0   -1
BITMAP
F780
F780
F780
F780
F780
F780
F780
F780
F780
F780
F780
8080
C180
E380
E380
F780
ENDCHAR
STARTCHAR 93
ENCODING 125
SWIDTH    9000    0
DWIDTH    9    0
BBX  9  16  0   -1
BITMAP
F780
E380
E380
C180
8080
F780
F780
F780
F780
F780
F780
8080
C180
E380
E380
F780
ENDCHAR
STARTCHAR 94
ENCODING 126
SWIDTH    9000    0
DWIDTH    9    0
BBX  9  16  0   -1
BITMAP
E380
DD80
BE80
BE80
FE80
FE80
FD80
FB80
F780
F780
F780
F780
F780
FF80
F780
F780
ENDCHAR
STARTCHAR 95
ENCODING 127
SWIDTH    9000    0
DWIDTH    9    0
BBX  9  16  0   -1
BITMAP
0000
0000
0000
0000
0000
0000
0000
0000
0000
0000
0000
0000
0000
0000
0000
0000
ENDCHAR
ENDFONT
